<mxfile host="app.diagrams.net" modified="2022-06-28T07:40:32.071Z" agent="5.0 (Windows NT 10.0; Win64; x64) AppleWebKit/537.36 (KHTML, like Gecko) Chrome/102.0.0.0 Safari/537.36" etag="d6esodi4LceHo6RfA_K2" version="20.0.3" type="github">
  <diagram id="Elubn8BKt5XZc2plE-IU" name="Page-1">
    <mxGraphModel dx="1422" dy="762" grid="1" gridSize="10" guides="1" tooltips="1" connect="1" arrows="1" fold="1" page="1" pageScale="1" pageWidth="827" pageHeight="1169" math="0" shadow="0">
      <root>
        <mxCell id="0" />
        <mxCell id="1" parent="0" />
        <mxCell id="LFSPI4-fzeLg2CQfC9Xw-3" value="Central OPC UA Server" style="rounded=0;whiteSpace=wrap;html=1;" vertex="1" parent="1">
          <mxGeometry x="330" y="180" width="160" height="80" as="geometry" />
        </mxCell>
        <mxCell id="LFSPI4-fzeLg2CQfC9Xw-18" style="edgeStyle=orthogonalEdgeStyle;rounded=0;orthogonalLoop=1;jettySize=auto;html=1;exitX=0.5;exitY=0;exitDx=0;exitDy=0;entryX=0.25;entryY=1;entryDx=0;entryDy=0;" edge="1" parent="1" source="LFSPI4-fzeLg2CQfC9Xw-4" target="LFSPI4-fzeLg2CQfC9Xw-3">
          <mxGeometry relative="1" as="geometry" />
        </mxCell>
        <mxCell id="LFSPI4-fzeLg2CQfC9Xw-4" value="OPC UA Server 1" style="rounded=0;whiteSpace=wrap;html=1;" vertex="1" parent="1">
          <mxGeometry x="150" y="350" width="120" height="60" as="geometry" />
        </mxCell>
        <mxCell id="LFSPI4-fzeLg2CQfC9Xw-19" value="" style="edgeStyle=orthogonalEdgeStyle;rounded=0;orthogonalLoop=1;jettySize=auto;html=1;" edge="1" parent="1" source="LFSPI4-fzeLg2CQfC9Xw-5" target="LFSPI4-fzeLg2CQfC9Xw-3">
          <mxGeometry relative="1" as="geometry">
            <Array as="points">
              <mxPoint x="400" y="300" />
              <mxPoint x="400" y="300" />
            </Array>
          </mxGeometry>
        </mxCell>
        <mxCell id="LFSPI4-fzeLg2CQfC9Xw-5" value="OPC UA Server 2" style="rounded=0;whiteSpace=wrap;html=1;" vertex="1" parent="1">
          <mxGeometry x="350" y="350" width="120" height="60" as="geometry" />
        </mxCell>
        <mxCell id="LFSPI4-fzeLg2CQfC9Xw-6" value="OPC UA Server 3" style="rounded=0;whiteSpace=wrap;html=1;" vertex="1" parent="1">
          <mxGeometry x="540" y="350" width="120" height="60" as="geometry" />
        </mxCell>
        <mxCell id="LFSPI4-fzeLg2CQfC9Xw-7" value="PLC" style="rounded=0;whiteSpace=wrap;html=1;dashed=1;" vertex="1" parent="1">
          <mxGeometry x="150" y="490" width="120" height="60" as="geometry" />
        </mxCell>
      </root>
    </mxGraphModel>
  </diagram>
</mxfile>
